<?xml version="1.0" standalone="no"?>
<!DOCTYPE svg PUBLIC "-//W3C//DTD SVG 20010904//EN"
 "http://www.w3.org/TR/2001/REC-SVG-20010904/DTD/svg10.dtd">
<svg version="1.0" xmlns="http://www.w3.org/2000/svg"
 width="564.000000pt" height="564.000000pt" viewBox="0 0 564.000000 564.000000"
 preserveAspectRatio="xMidYMid meet">

<g transform="translate(0.000000,564.000000) scale(0.100000,-0.100000)"
fill="#000000" stroke="none">
<path d="M0 2820 l0 -2820 2820 0 2820 0 0 230 0 230 -57 -6 c-32 -3 -83 -11
-113 -17 -30 -5 -90 -11 -132 -11 -66 -1 -81 2 -109 23 -30 22 -37 23 -125 17
-126 -10 -284 2 -284 20 0 8 -3 14 -7 15 -27 2 -85 9 -123 15 -25 4 -48 8 -51
8 -3 1 -13 9 -23 18 -10 10 -29 21 -44 24 -15 4 -33 11 -39 16 -7 6 -89 12
-182 14 -160 3 -192 8 -225 36 -49 40 -60 48 -68 48 -5 0 -27 18 -48 39 -34
34 -40 46 -44 90 -3 47 -1 54 26 76 16 14 34 25 39 25 5 0 9 7 9 15 0 13 15
15 93 12 57 -2 103 -9 122 -19 30 -16 94 -33 107 -30 5 1 8 -2 8 -8 0 -5 19
-15 43 -22 23 -6 44 -15 47 -18 5 -5 89 -44 100 -46 3 0 28 -11 55 -23 28 -13
75 -32 104 -42 30 -11 64 -25 75 -32 22 -14 115 -41 181 -52 22 -4 43 -11 46
-17 3 -5 34 -12 68 -15 34 -3 64 -10 67 -14 7 -12 172 -10 264 3 41 5 108 9
148 9 l72 -2 0 2516 0 2515 -2125 0 c-1693 0 -2125 -3 -2125 -12 0 -9 -3 -8
-10 2 -7 12 -13 10 -34 -13 -14 -15 -28 -27 -33 -27 -4 0 -2 5 5 12 38 38 35
38 -653 38 l-665 0 0 -2820z m1330 2740 c13 -8 13 -10 -2 -10 -9 0 -20 5 -23
10 -8 13 5 13 25 0z m1560 -383 c14 -7 63 -14 109 -15 47 -2 90 -6 95 -11 6
-4 27 -14 46 -21 19 -8 49 -24 66 -37 18 -13 45 -24 60 -24 16 0 52 0 79 -1
28 -1 68 -1 90 0 47 2 193 -35 216 -55 30 -25 80 -32 237 -34 152 -1 158 -2
215 -31 55 -27 58 -30 43 -47 -9 -10 -16 -21 -16 -25 0 -13 -28 -36 -44 -36
-9 0 -16 -4 -16 -8 0 -4 -16 -14 -35 -21 -19 -7 -35 -17 -35 -22 0 -5 -5 -9
-11 -9 -14 0 -69 -55 -69 -69 0 -10 -33 -20 -70 -22 -25 -1 -25 -1 4 -13 30
-14 21 -31 -11 -20 -15 6 -16 4 -5 -7 18 -20 14 -75 -12 -166 -28 -95 -43
-126 -57 -118 -5 4 -9 3 -8 -2 2 -4 -3 -20 -11 -35 -12 -25 -10 -33 13 -77 17
-34 22 -51 14 -55 -9 -3 -8 -7 2 -14 17 -12 7 -95 -15 -126 -8 -11 -14 -27
-14 -34 0 -8 -7 -30 -16 -49 -12 -24 -14 -37 -6 -45 7 -7 4 -16 -10 -30 -15
-15 -17 -22 -8 -28 10 -6 7 -14 -9 -31 -11 -12 -20 -28 -19 -33 1 -11 -4 -24
-42 -111 -10 -22 -28 -66 -41 -99 -18 -45 -30 -61 -51 -68 -20 -7 -28 -17 -28
-34 0 -13 -6 -24 -12 -25 -7 0 5 -9 27 -20 22 -10 32 -19 23 -19 -10 0 -18 -4
-18 -10 0 -5 8 -10 18 -10 15 -1 15 -2 -2 -15 -16 -12 -18 -19 -8 -40 7 -15 8
-25 2 -25 -6 0 -10 -4 -10 -10 0 -5 6 -10 14 -10 7 0 16 -9 19 -20 3 -13 0
-20 -9 -20 -24 0 -3 -29 26 -35 16 -3 30 -14 33 -26 5 -19 30 -25 85 -20 16 1
22 -4 22 -18 0 -13 8 -21 23 -23 16 -2 21 -9 20 -26 -2 -14 3 -22 12 -22 8 0
15 6 15 13 0 8 3 7 9 -3 6 -8 8 -17 6 -20 -1 -3 4 -11 13 -19 13 -13 14 -12 8
12 -4 17 -2 27 4 27 6 0 8 -5 5 -11 -4 -6 3 -13 14 -16 20 -5 20 -7 7 -22 -28
-30 -9 -58 63 -93 36 -17 68 -35 69 -40 2 -4 23 -8 47 -8 26 0 47 -6 55 -15 7
-8 9 -15 4 -15 -20 0 49 -30 84 -36 20 -4 42 -11 49 -16 7 -5 32 -11 55 -13
57 -4 56 -4 29 -19 l-23 -13 37 -21 c20 -12 40 -22 46 -22 8 0 9 -4 9 -25 -1
-15 70 -78 104 -94 54 -24 106 -79 87 -90 -10 -6 -3 -12 23 -21 52 -17 96 -59
96 -92 0 -16 6 -28 13 -29 6 0 21 -3 32 -5 11 -2 59 -7 107 -11 77 -5 89 -9
103 -29 9 -13 21 -24 28 -24 7 0 26 -13 41 -29 24 -25 27 -34 21 -63 -5 -18
-9 -49 -11 -68 -2 -19 -5 -42 -7 -50 -16 -61 -21 -69 -43 -74 -20 -5 -24 -11
-19 -29 5 -17 4 -19 -4 -7 -11 16 -14 9 -11 -28 1 -12 -6 -25 -14 -28 -17 -7
-22 -34 -6 -34 14 0 13 -37 -1 -42 -17 -6 -18 -220 -1 -226 18 -6 4 -22 -19
-22 -12 0 -19 -7 -19 -19 0 -10 -7 -24 -15 -31 -8 -7 -15 -23 -15 -37 0 -13
-7 -26 -16 -30 -9 -3 -14 -13 -11 -25 3 -11 -2 -22 -15 -29 -11 -6 -17 -13
-14 -16 3 -3 -6 -25 -19 -50 -14 -24 -25 -49 -25 -56 0 -16 -55 -77 -70 -77
-6 0 -8 -4 -5 -10 3 -5 2 -10 -4 -10 -5 0 -11 5 -13 12 -6 17 -89 11 -108 -8
-12 -12 -13 -16 -1 -23 18 -11 -2 -23 -24 -15 -15 6 -17 -1 -14 -71 l4 -79
-29 -7 c-33 -9 -56 -2 -56 17 0 8 -6 13 -12 11 -7 -1 -22 17 -33 39 -11 23
-28 51 -38 61 -9 11 -17 35 -17 54 -1 120 -32 229 -67 229 -9 0 -13 6 -9 15 4
12 -2 15 -27 15 -38 -2 -96 9 -118 21 -10 5 -20 4 -27 -3 -15 -15 -16 -103 -1
-129 6 -11 11 -49 12 -85 1 -35 5 -64 9 -64 5 0 8 -4 8 -10 0 -6 -9 -6 -22 -1
-31 11 -69 -4 -62 -24 3 -8 2 -15 -4 -15 -9 0 -27 -47 -24 -62 1 -5 -11 -8
-26 -8 -15 0 -33 -5 -40 -12 -8 -8 -15 -8 -26 1 -9 7 -24 10 -37 6 -17 -6 -20
-4 -15 12 3 10 -1 26 -8 36 -12 15 -21 17 -62 10 -42 -7 -50 -12 -52 -33 -2
-13 -16 -35 -30 -47 -29 -25 -33 -26 -57 -17 -13 6 -14 9 -3 16 8 6 -7 8 -45
4 -68 -7 -98 11 -99 63 -1 18 -8 36 -17 41 -14 8 -14 9 2 10 9 0 17 8 18 18 0
9 2 29 4 45 3 23 0 27 -23 28 -27 1 -105 27 -87 29 25 3 -62 30 -96 30 -38 0
-44 6 -40 37 1 7 -3 13 -9 13 -19 0 -10 29 11 35 16 5 20 13 16 31 -3 17 1 28
13 34 10 5 20 7 22 4 3 -2 11 9 18 26 7 16 16 30 20 30 4 0 7 21 6 48 -1 43
-5 51 -55 97 -29 28 -63 51 -75 52 -117 12 -236 55 -236 85 0 16 -11 23 -32
19 -5 0 -8 5 -8 12 0 8 -3 8 -9 -2 -5 -8 -16 -16 -25 -17 -25 -4 -80 38 -96
73 -8 18 -19 31 -24 30 -10 -3 -66 55 -66 68 0 16 -44 45 -67 45 -13 0 -34 9
-46 20 -12 12 -32 23 -45 27 -19 4 -23 10 -18 32 3 14 3 20 0 13 -4 -9 -12 -5
-25 12 -10 13 -38 34 -61 46 -48 24 -77 56 -78 84 0 14 -6 17 -27 13 -28 -5
-73 10 -73 25 0 5 -9 6 -20 3 -20 -6 -28 9 -10 20 17 10 11 25 -10 25 -13 0
-20 7 -20 20 0 11 -4 20 -8 20 -5 0 -19 9 -32 20 -13 11 -31 20 -42 20 -25 0
-23 7 9 34 23 20 25 26 15 39 -11 13 -10 16 5 22 35 12 84 61 77 78 -3 10 -10
17 -15 17 -17 0 -9 20 9 21 16 1 16 2 0 6 -10 2 -18 11 -18 19 0 10 -12 14
-40 14 -22 0 -40 5 -40 10 0 6 9 10 20 10 17 0 19 4 14 28 -4 15 -13 31 -21
35 -7 4 -13 15 -13 22 0 8 -6 15 -14 15 -7 0 -16 14 -19 33 -3 17 -8 39 -12
48 -3 9 1 23 9 32 9 9 16 20 16 25 0 8 53 47 83 60 24 11 58 57 55 74 -2 16
-13 21 -58 25 -30 3 -82 4 -115 4 -86 -1 -152 9 -134 20 11 7 11 9 -4 9 -10 0
-22 11 -27 25 -9 24 -19 29 -48 26 -7 -1 -12 5 -10 15 3 17 -6 24 -53 42 -51
20 -43 122 11 122 9 0 21 5 28 12 9 9 12 9 12 0 0 -7 9 -12 20 -12 13 0 20 7
20 20 0 16 7 20 34 20 19 0 37 -4 41 -9 3 -5 46 -13 95 -17 84 -6 90 -8 90
-28 0 -19 6 -22 37 -23 21 -1 39 -6 41 -12 2 -6 13 -11 23 -11 11 0 17 -4 14
-10 -3 -5 1 -10 9 -10 9 0 16 -4 16 -10 0 -5 19 -15 43 -21 23 -7 46 -16 52
-21 5 -4 21 -8 36 -8 15 0 29 -4 31 -10 2 -5 13 -11 25 -13 12 -2 31 -11 41
-20 10 -9 24 -17 31 -17 6 0 23 -11 36 -25 14 -13 25 -21 25 -18 0 3 10 -5 23
-19 l23 -24 19 22 c13 16 22 19 27 11 4 -6 10 -8 14 -4 9 8 -22 40 -48 50 -10
3 -18 11 -18 17 0 7 -8 9 -21 5 -20 -7 -21 -5 -15 29 6 30 4 36 -10 36 -11 0
-15 6 -11 20 4 15 0 20 -16 20 -24 0 -45 34 -39 63 2 9 10 17 17 17 7 0 15 3
17 8 4 8 65 52 73 52 3 0 17 11 31 25 14 14 20 25 14 25 -6 0 -10 8 -8 18 2
12 -5 18 -27 20 -16 2 -34 7 -40 11 -5 4 -35 13 -65 19 -146 30 -227 44 -246
43 -11 0 -30 9 -42 20 -18 16 -22 31 -22 84 0 50 -4 66 -17 74 -16 9 -16 10 5
11 12 0 22 5 22 10 0 6 11 8 25 4 29 -7 175 23 175 37 0 5 -21 9 -47 9 -68 0
-118 16 -157 50 -18 16 -36 27 -39 23 -4 -3 -11 5 -16 19 -11 28 -36 38 -98
38 -49 0 -56 17 -23 50 12 12 20 33 20 53 0 35 36 77 65 77 8 0 15 6 15 14 0
25 31 40 78 37 26 -2 55 -7 66 -13 11 -6 70 -12 132 -15 94 -3 112 -2 117 12
5 10 22 15 59 17 36 1 43 2 21 5 -25 3 -33 9 -33 24 0 10 4 19 9 19 5 0 4 11
-2 25 -9 20 -17 24 -35 20 -12 -3 -32 0 -45 7 -38 21 -91 38 -123 38 -30 0
-84 29 -55 30 8 0 -5 10 -29 23 -48 25 -63 47 -31 47 11 0 22 4 25 9 3 5 15 7
26 4 27 -7 58 21 82 75 10 23 23 42 28 42 6 0 10 12 10 28 0 33 -70 112 -99
112 -11 0 -23 5 -26 10 -3 6 -14 10 -25 10 -10 0 -28 11 -41 25 -13 13 -31 25
-40 25 -8 0 -19 4 -25 8 -11 10 -76 30 -118 37 -16 2 -32 8 -35 13 -8 12 -52
35 -74 39 -10 2 -38 -6 -63 -18 -31 -13 -55 -18 -75 -14 -23 5 -29 3 -29 -10
0 -22 -35 -66 -46 -57 -4 4 0 -5 9 -20 16 -25 16 -28 1 -28 -12 0 -14 -6 -9
-29 5 -23 2 -31 -13 -35 -20 -7 -26 -36 -8 -36 6 0 3 -5 -6 -11 -10 -5 -18
-19 -18 -29 0 -11 -7 -20 -15 -20 -7 0 -19 -8 -24 -17 -6 -10 -11 -13 -11 -8
-6 54 -12 81 -20 83 -16 6 -12 22 5 22 24 0 17 37 -11 59 -19 15 -22 21 -11
21 9 0 19 9 22 20 4 14 15 20 36 20 18 0 28 4 24 10 -4 6 -11 8 -16 5 -12 -8
-11 -1 2 29 10 21 40 40 60 37 4 0 10 10 13 22 3 15 22 31 53 46 59 28 109 55
125 68 7 6 24 14 38 18 13 4 30 13 37 20 7 7 32 16 55 20 48 8 98 26 98 37 0
12 72 28 125 28 28 0 64 7 80 16 35 20 184 28 223 13 17 -6 27 -6 31 0 4 6 42
12 86 14 44 1 85 4 90 5 6 1 21 -4 35 -11z m-902 -1068 c-3 -27 -1 -52 3 -55
4 -2 5 -14 0 -25 -9 -26 -142 -71 -181 -63 -61 14 -99 38 -110 68 -7 17 -18
42 -25 55 -12 23 -10 27 27 58 30 25 46 31 64 27 13 -3 24 -2 24 3 0 14 62 32
90 27 14 -3 36 -1 50 4 38 14 64 -31 58 -99z m-13 -649 c4 -6 -7 -10 -24 -10
-17 0 -31 5 -31 10 0 6 11 10 24 10 14 0 28 -4 31 -10z m665 -271 c0 -5 -4 -9
-10 -9 -5 0 -10 7 -10 16 0 8 5 12 10 9 6 -3 10 -10 10 -16z m-550 -969 c-20
-13 -70 -13 -70 0 0 6 19 10 43 10 31 0 38 -3 27 -10z m-251 -107 c-6 -38 1
-41 74 -41 103 1 174 -20 192 -56 19 -36 44 -55 71 -56 13 0 26 -12 37 -36 19
-39 15 -74 -9 -74 -8 0 -14 -5 -14 -11 0 -6 -9 -24 -21 -40 -14 -20 -20 -40
-17 -60 5 -31 -6 -40 -16 -13 -5 14 -10 13 -31 -8 -14 -12 -25 -29 -25 -36 0
-11 -18 -13 -80 -10 -58 3 -77 1 -70 -7 10 -12 3 -25 -13 -25 -5 0 -6 17 -2
40 6 38 6 40 -20 40 -14 0 -33 7 -41 15 -9 8 -24 15 -35 15 -14 0 -19 7 -19
29 0 24 -5 30 -32 36 -18 5 -40 9 -49 9 -8 1 -23 9 -33 19 -12 11 -25 15 -39
11 -18 -6 -19 -3 -14 24 4 17 3 34 -2 36 -12 8 -12 86 0 86 5 0 9 9 9 20 0 13
7 20 20 20 11 0 20 7 20 15 0 8 9 15 20 15 11 0 20 4 20 8 0 13 62 41 93 41
15 1 26 -2 26 -6z m498 -386 c-4 -10 7 -12 44 -9 41 3 53 0 67 -17 20 -24 90
-51 146 -57 44 -5 107 -40 105 -57 -1 -7 3 -25 10 -41 10 -24 9 -30 -5 -41
-10 -6 -14 -17 -10 -23 3 -5 -12 -29 -34 -52 -32 -33 -40 -49 -40 -79 0 -20
-6 -46 -14 -56 -8 -11 -12 -25 -9 -32 5 -12 -26 -73 -38 -73 -10 0 -21 83 -12
89 5 3 7 32 5 64 l-4 57 -48 0 c-41 0 -50 -3 -56 -22 -9 -29 -44 -57 -71 -58
-16 0 -23 -6 -23 -20 0 -11 -4 -20 -10 -20 -5 0 -10 -9 -10 -20 0 -11 5 -20
11 -20 7 0 9 -14 6 -37 -6 -48 -17 -74 -28 -68 -4 3 -18 -8 -30 -25 -13 -16
-29 -30 -36 -30 -7 0 -13 -8 -14 -17 0 -13 -3 -11 -11 7 -6 14 -10 31 -9 38 2
15 0 15 -33 2 -17 -6 -26 -6 -26 0 0 6 5 10 11 10 6 0 9 16 7 38 -3 33 -5 37
-28 33 -14 -3 -35 -5 -47 -5 -13 -1 -23 -6 -23 -12 0 -12 -48 -23 -68 -16 -7
2 -12 12 -12 23 0 10 -7 19 -15 19 -19 0 -10 25 27 73 16 20 27 41 24 46 -3 5
1 11 9 15 8 3 15 14 15 24 0 11 10 27 23 36 15 12 18 18 10 22 -20 9 -15 24 7
24 13 0 20 7 20 20 0 11 -4 20 -10 20 -5 0 -10 9 -10 19 0 11 5 23 10 26 16
10 12 35 -6 35 -13 0 -14 3 -4 15 6 8 15 14 18 13 18 -3 42 16 42 34 0 10 4
17 9 14 16 -10 71 6 71 20 0 8 8 14 18 15 15 0 15 1 -2 8 -18 7 -18 8 -2 14
24 9 24 9 29 -10 4 -16 5 -16 6 -1 0 9 -6 23 -14 32 -14 13 -12 15 17 19 18 2
37 5 42 5 4 1 6 -4 3 -11z m853 -370 c12 -4 11 -6 -3 -6 -14 -1 -17 -7 -13
-31 5 -37 -10 -31 -17 7 -5 30 2 60 12 45 3 -5 13 -12 21 -15z m13 -164 c-7
-2 -21 -2 -30 0 -10 3 -4 5 12 5 17 0 24 -2 18 -5z"/>
<path d="M3710 4622 c0 -12 19 -26 26 -19 2 2 -2 10 -11 17 -9 8 -15 8 -15 2z"/>
<path d="M2857 4515 c-9 -52 -8 -172 2 -260 5 -45 4 -76 -3 -87 -15 -25 8 -68
36 -69 22 0 22 -1 3 -9 -19 -8 -19 -9 3 -9 16 -1 22 5 22 19 0 15 7 20 27 20
18 0 41 -15 76 -51 53 -54 51 -48 33 -154 -6 -39 13 -49 37 -19 20 26 42 28
42 3 0 -10 15 -15 48 -17 41 -3 47 -1 47 16 0 15 7 19 29 18 22 -1 28 -5 25
-18 -1 -10 1 -18 7 -18 5 0 9 7 9 15 0 8 5 15 10 15 7 0 7 6 0 19 -6 11 -6 22
-1 25 5 3 12 18 16 33 3 16 12 42 20 58 14 33 28 67 29 75 1 3 6 12 11 20 5 8
8 23 6 34 -1 10 3 22 9 26 17 11 3 50 -16 43 -7 -3 -14 -11 -14 -19 0 -7 -6
-11 -14 -8 -7 3 -20 -1 -28 -9 -7 -8 -30 -16 -50 -19 -30 -3 -38 0 -42 15 -3
11 -12 18 -23 16 -29 -4 -71 12 -77 28 -6 14 -9 14 -25 -1 -11 -10 -22 -29
-26 -43 -5 -23 -10 -25 -42 -20 -42 7 -75 35 -81 69 -2 13 -4 65 -5 117 -1 65
-6 96 -14 98 -7 3 -13 10 -13 17 0 18 -37 49 -49 42 -5 -3 -11 2 -13 11 -2 10
-7 0 -11 -22z"/>
<path d="M3373 3907 c-42 -12 -67 -27 -45 -27 9 0 9 -5 0 -20 -10 -16 -14 -17
-18 -5 -4 10 -8 8 -16 -10 -9 -18 -9 -22 1 -19 10 4 12 -10 8 -58 -6 -78 7
-98 63 -103 53 -5 128 30 132 63 2 12 7 22 11 22 20 0 33 136 15 151 -19 16
-105 19 -151 6z"/>
<path d="M2725 3899 c-38 -4 -95 -14 -125 -22 -30 -9 -59 -13 -63 -10 -16 10
4 -75 29 -128 39 -80 62 -99 126 -106 42 -4 70 0 117 16 33 11 72 21 85 21 31
0 34 10 30 97 -2 56 1 76 13 88 14 14 14 18 2 30 -18 17 -127 24 -214 14z"/>
<path d="M2954 3586 c-8 -22 -1 -28 26 -24 l22 3 -21 19 c-19 17 -21 17 -27 2z"/>
<path d="M2980 3495 c0 -8 5 -15 10 -15 6 0 10 -8 10 -18 0 -28 37 -25 42 3 4
20 -1 26 -25 35 -38 13 -37 13 -37 -5z"/>
<path d="M3031 3421 c-11 -7 -11 -9 0 -14 9 -3 3 -7 -13 -12 -30 -8 -44 -31
-23 -39 7 -2 21 -20 29 -38 9 -18 32 -52 51 -74 l36 -42 44 45 c57 56 61 92
13 94 -80 4 -121 17 -114 35 9 23 -7 54 -23 45z"/>
<path d="M3210 3309 c0 -5 5 -7 10 -4 6 3 10 8 10 11 0 2 -4 4 -10 4 -5 0 -10
-5 -10 -11z"/>
<path d="M1970 3206 c0 -2 7 -6 15 -10 8 -3 15 -1 15 4 0 6 -7 10 -15 10 -8 0
-15 -2 -15 -4z"/>
<path d="M2760 3115 c0 -8 2 -15 4 -15 2 0 6 7 10 15 3 8 1 15 -4 15 -6 0 -10
-7 -10 -15z"/>
<path d="M2810 3110 c0 -5 5 -10 10 -10 6 0 10 5 10 10 0 6 -4 10 -10 10 -5 0
-10 -4 -10 -10z"/>
<path d="M3760 2740 c0 -11 -5 -20 -12 -20 -6 0 -9 -2 -6 -5 3 -3 13 -3 22 1
17 7 23 44 6 44 -5 0 -10 -9 -10 -20z"/>
<path d="M3760 2644 c0 -8 5 -12 10 -9 6 4 8 11 5 16 -9 14 -15 11 -15 -7z"/>
<path d="M2380 2555 c14 -16 40 -20 40 -6 0 9 -24 21 -42 21 -6 0 -6 -6 2 -15z"/>
<path d="M2355 2530 c-3 -5 -1 -10 4 -10 6 0 11 5 11 10 0 6 -2 10 -4 10 -3 0
-8 -4 -11 -10z"/>
<path d="M4028 2253 c-21 -2 -38 -6 -38 -8 0 -2 11 -14 23 -27 36 -35 86 -56
150 -63 40 -4 57 -11 57 -21 0 -8 6 -14 14 -14 8 0 16 -6 19 -14 3 -8 18 -23
32 -32 23 -15 28 -15 35 -3 5 8 14 15 20 15 20 3 21 4 8 18 -9 10 -17 10 -30
3 -23 -15 -41 2 -58 53 -7 22 -21 42 -32 45 -10 4 -18 10 -18 15 0 5 -13 11
-30 15 -16 4 -32 11 -35 16 -6 9 -43 9 -117 2z"/>
<path d="M4885 2060 c-18 -19 -17 -20 3 -20 12 0 22 2 22 4 0 2 3 11 6 20 9
22 -9 20 -31 -4z"/>
<path d="M4741 2063 c-22 -9 -61 -45 -61 -57 0 -12 -52 -16 -60 -4 -3 4 -28 1
-55 -6 l-50 -12 -3 -53 c-2 -41 0 -51 10 -45 8 4 10 3 5 -2 -5 -5 -13 -10 -18
-10 -5 -1 -12 -2 -17 -3 -4 0 -13 -10 -20 -21 -17 -27 -4 -50 43 -74 29 -16
38 -17 44 -7 7 10 9 10 14 -2 10 -26 101 -10 161 27 28 18 59 35 68 39 14 5
63 87 55 92 -1 1 -20 9 -42 17 -43 17 -57 45 -31 60 9 5 16 22 16 38 0 25 -4
30 -22 29 -13 0 -29 -3 -37 -6z m-194 -149 c-3 -3 -12 -4 -19 -1 -8 3 -5 6 6
6 11 1 17 -2 13 -5z"/>
<path d="M3680 1230 c0 -5 9 -10 20 -10 11 0 20 5 20 10 0 6 -9 10 -20 10 -11
0 -20 -4 -20 -10z"/>
<path d="M3607 1153 c-17 -16 -5 -33 23 -33 17 0 30 -5 30 -12 0 -9 3 -9 8 -3
4 6 14 10 22 10 17 -1 30 13 30 33 0 13 -101 18 -113 5z"/>
<path d="M1810 1789 c0 -5 5 -7 10 -4 6 3 10 8 10 11 0 2 -4 4 -10 4 -5 0 -10
-5 -10 -11z"/>
</g>
</svg>
